<?xml version="1.0" standalone="no"?>
<!DOCTYPE svg PUBLIC "-//W3C//DTD SVG 20010904//EN"
 "http://www.w3.org/TR/2001/REC-SVG-20010904/DTD/svg10.dtd">
<svg version="1.0" xmlns="http://www.w3.org/2000/svg"
 width="1280.000000px" height="876.000000px" viewBox="0 0 1280.000000 876.000000"
 preserveAspectRatio="xMidYMid meet">
<g transform="translate(0.000000,876.000000) scale(0.100000,-0.100000)"
fill="#FFFFFF" stroke="none">
<path d="M5970 8749 c-1498 -73 -2938 -525 -4215 -1322 -524 -327 -1053 -744
-1465 -1157 -173 -172 -214 -231 -257 -370 -23 -72 -27 -103 -27 -205 0 -137
15 -209 70 -321 176 -358 616 -499 976 -312 66 34 113 72 252 203 228 214 342
315 516 454 1045 839 2325 1380 3650 1545 369 46 443 50 930 50 487 0 561 -4
930 -50 1325 -165 2605 -706 3650 -1545 174 -139 288 -240 516 -454 190 -179
267 -229 410 -265 104 -27 254 -27 358 0 196 50 371 192 460 374 55 112 70
184 70 321 0 102 -4 133 -27 205 -43 139 -84 198 -257 370 -412 413 -941 830
-1465 1157 -1523 951 -3287 1410 -5075 1322z"/>
<path d="M6105 6220 c-1439 -69 -2762 -575 -3863 -1478 -169 -138 -353 -305
-467 -424 -161 -167 -225 -316 -225 -522 1 -201 71 -370 210 -506 196 -191
468 -255 724 -169 124 41 189 84 324 212 428 403 819 681 1297 919 551 276
1124 441 1785 515 219 25 801 25 1020 0 661 -74 1234 -239 1785 -515 478 -238
869 -516 1297 -919 135 -128 200 -171 324 -212 256 -86 528 -22 724 169 139
136 209 305 210 506 0 206 -64 355 -225 522 -219 228 -571 523 -880 738 -856
596 -1848 979 -2884 1114 -348 45 -824 66 -1156 50z"/>
<path d="M6110 3629 c-929 -74 -1754 -432 -2435 -1058 -60 -55 -132 -127 -158
-158 -57 -69 -120 -193 -144 -283 -21 -80 -23 -252 -4 -330 67 -272 274 -476
546 -541 85 -20 249 -15 338 10 142 39 210 81 372 231 427 395 914 621 1490
691 129 15 441 15 570 0 317 -39 597 -122 872 -259 220 -109 422 -250 618
-432 162 -150 230 -192 372 -231 89 -25 253 -30 338 -10 272 65 479 269 546
541 19 78 17 250 -4 330 -24 90 -87 214 -144 283 -170 204 -611 545 -942 727
-675 372 -1482 548 -2231 489z"/>
<path d="M6270 1174 c-146 -31 -311 -150 -384 -277 -81 -138 -104 -327 -59
-472 57 -182 193 -322 381 -393 57 -22 84 -26 182 -26 142 -1 228 24 337 96
219 147 315 424 234 679 -44 140 -159 272 -296 340 -132 65 -260 83 -395 53z"/>
</g>
</svg>
